<svg xmlns="http://www.w3.org/2000/svg" xmlns:xlink="http://www.w3.org/1999/xlink" width="1184" height="1641" contentStyleType="text/css" preserveAspectRatio="none" style="width:1184px;height:1641px;background:#fff" version="1.1" viewBox="0 0 1184 1641" zoomAndPan="magnify"><g><text x="309.75" y="30.107" fill="#000" font-family="sans-serif" font-size="14" font-weight="bold" lengthAdjust="spacing" textLength="557">SmartDerivativeContract with Settlement-Token and off-chain Valuation Service</text><rect width="10" height="1415.902" x="31.5" fill="#FFF" style="stroke:#181818;stroke-width:1" y="133.242"/><rect width="10" height="1415.902" x="74.5" fill="#FFF" style="stroke:#181818;stroke-width:1" y="133.242"/><rect width="10" height="1303.738" x="272.5" fill="#FFF" style="stroke:#181818;stroke-width:1" y="245.406"/><rect width="10" height="1415.902" x="778.5" fill="#FFF" style="stroke:#181818;stroke-width:1" y="133.242"/><rect width="10" height="1415.902" x="898.5" fill="#FFF" style="stroke:#181818;stroke-width:1" y="133.242"/><rect width="10" height="1415.902" x="1092.5" fill="#FFF" style="stroke:#181818;stroke-width:1" y="133.242"/><rect width="1157.5" height="731.402" x="10" fill="none" style="stroke:#000;stroke-width:1.5" y="140.242"/><rect width="1157.5" height="655.5" x="10" fill="none" style="stroke:#000;stroke-width:1.5" y="885.644"/><rect width="608" height="268.299" x="246" fill="none" style="stroke:#000;stroke-width:1.5" y="1265.846"/><line style="stroke:#181818;stroke-width:.5;stroke-dasharray:5,5" x1="36" x2="36" y1="123.242" y2="1558.145"/><line style="stroke:#181818;stroke-width:.5;stroke-dasharray:5,5" x1="79" x2="79" y1="123.242" y2="1558.145"/><line style="stroke:#181818;stroke-width:.5;stroke-dasharray:5,5" x1="277" x2="277" y1="123.242" y2="1558.145"/><line style="stroke:#181818;stroke-width:.5;stroke-dasharray:5,5" x1="783" x2="783" y1="123.242" y2="1558.145"/><line style="stroke:#181818;stroke-width:.5;stroke-dasharray:5,5" x1="903" x2="903" y1="123.242" y2="1558.145"/><line style="stroke:#181818;stroke-width:.5;stroke-dasharray:5,5" x1="1097.5" x2="1097.5" y1="123.242" y2="1558.145"/><text x="20" y="119.728" fill="#000" font-family="sans-serif" font-size="14" lengthAdjust="spacing" textLength="27">CP1</text><ellipse cx="36.5" cy="53.121" fill="#E2E2F0" rx="8" ry="8" style="stroke:#181818;stroke-width:.5"/><path fill="none" d="M36.5,61.1211 L36.5,88.1211 M23.5,69.1211 L49.5,69.1211 M36.5,88.1211 L23.5,103.1211 M36.5,88.1211 L49.5,103.1211" style="stroke:#181818;stroke-width:.5"/><text x="20" y="1572.252" fill="#000" font-family="sans-serif" font-size="14" lengthAdjust="spacing" textLength="27">CP1</text><ellipse cx="36.5" cy="1584.266" fill="#E2E2F0" rx="8" ry="8" style="stroke:#181818;stroke-width:.5"/><path fill="none" d="M36.5,1592.2656 L36.5,1619.2656 M23.5,1600.2656 L49.5,1600.2656 M36.5,1619.2656 L23.5,1634.2656 M36.5,1619.2656 L49.5,1634.2656" style="stroke:#181818;stroke-width:.5"/><text x="63" y="119.728" fill="#000" font-family="sans-serif" font-size="14" lengthAdjust="spacing" textLength="27">CP2</text><ellipse cx="79.5" cy="53.121" fill="#E2E2F0" rx="8" ry="8" style="stroke:#181818;stroke-width:.5"/><path fill="none" d="M79.5,61.1211 L79.5,88.1211 M66.5,69.1211 L92.5,69.1211 M79.5,88.1211 L66.5,103.1211 M79.5,88.1211 L92.5,103.1211" style="stroke:#181818;stroke-width:.5"/><text x="63" y="1572.252" fill="#000" font-family="sans-serif" font-size="14" lengthAdjust="spacing" textLength="27">CP2</text><ellipse cx="79.5" cy="1584.266" fill="#E2E2F0" rx="8" ry="8" style="stroke:#181818;stroke-width:.5"/><path fill="none" d="M79.5,1592.2656 L79.5,1619.2656 M66.5,1600.2656 L92.5,1600.2656 M79.5,1619.2656 L66.5,1634.2656 M79.5,1619.2656 L92.5,1634.2656" style="stroke:#181818;stroke-width:.5"/><rect width="43" height="32.621" x="256" y="89.621" fill="#E2E2F0" rx="2.5" ry="2.5" style="stroke:#181818;stroke-width:.5"/><text x="263" y="111.728" fill="#000" font-family="sans-serif" font-size="14" lengthAdjust="spacing" textLength="29">SDC</text><rect width="43" height="32.621" x="256" y="1557.145" fill="#E2E2F0" rx="2.5" ry="2.5" style="stroke:#181818;stroke-width:.5"/><text x="263" y="1579.252" fill="#000" font-family="sans-serif" font-size="14" lengthAdjust="spacing" textLength="29">SDC</text><rect width="121" height="32.621" x="723" y="89.621" fill="#E2E2F0" rx="2.5" ry="2.5" style="stroke:#181818;stroke-width:.5"/><text x="730" y="111.728" fill="#000" font-family="sans-serif" font-size="14" lengthAdjust="spacing" textLength="107">SettlementToken</text><rect width="121" height="32.621" x="723" y="1557.145" fill="#E2E2F0" rx="2.5" ry="2.5" style="stroke:#181818;stroke-width:.5"/><text x="730" y="1579.252" fill="#000" font-family="sans-serif" font-size="14" lengthAdjust="spacing" textLength="107">SettlementToken</text><rect width="99" height="32.621" x="854" y="89.621" fill="#E2E2F0" rx="2.5" ry="2.5" style="stroke:#181818;stroke-width:.5"/><text x="861" y="111.728" fill="#000" font-family="sans-serif" font-size="14" lengthAdjust="spacing" textLength="85">EventHandler</text><rect width="99" height="32.621" x="854" y="1557.145" fill="#E2E2F0" rx="2.5" ry="2.5" style="stroke:#181818;stroke-width:.5"/><text x="861" y="1579.252" fill="#000" font-family="sans-serif" font-size="14" lengthAdjust="spacing" textLength="85">EventHandler</text><rect width="120" height="32.621" x="1037.5" y="89.621" fill="#E2E2F0" rx="2.5" ry="2.5" style="stroke:#181818;stroke-width:.5"/><text x="1044.5" y="111.728" fill="#000" font-family="sans-serif" font-size="14" lengthAdjust="spacing" textLength="106">ValuationService</text><rect width="120" height="32.621" x="1037.5" y="1557.145" fill="#E2E2F0" rx="2.5" ry="2.5" style="stroke:#181818;stroke-width:.5"/><text x="1044.5" y="1579.252" fill="#000" font-family="sans-serif" font-size="14" lengthAdjust="spacing" textLength="106">ValuationService</text><rect width="10" height="1415.902" x="31.5" fill="#FFF" style="stroke:#181818;stroke-width:1" y="133.242"/><rect width="10" height="1415.902" x="74.5" fill="#FFF" style="stroke:#181818;stroke-width:1" y="133.242"/><rect width="10" height="1303.738" x="272.5" fill="#FFF" style="stroke:#181818;stroke-width:1" y="245.406"/><rect width="10" height="1415.902" x="778.5" fill="#FFF" style="stroke:#181818;stroke-width:1" y="133.242"/><rect width="10" height="1415.902" x="898.5" fill="#FFF" style="stroke:#181818;stroke-width:1" y="133.242"/><rect width="10" height="1415.902" x="1092.5" fill="#FFF" style="stroke:#181818;stroke-width:1" y="133.242"/><path fill="#EEE" d="M10,140.2422 L151,140.2422 L151,149.5332 L141,159.5332 L10,159.5332 L10,140.2422" style="stroke:#000;stroke-width:1.5"/><rect width="1157.5" height="731.402" x="10" fill="none" style="stroke:#000;stroke-width:1.5" y="140.242"/><text x="25" y="155.27" fill="#000" font-family="sans-serif" font-size="13" font-weight="bold" lengthAdjust="spacing" textLength="96">Initialize Trade</text><polygon fill="#181818" points="766.5 178.824 776.5 182.824 766.5 186.824 770.5 182.824" style="stroke:#181818;stroke-width:1"/><line style="stroke:#181818;stroke-width:1" x1="41.5" x2="772.5" y1="182.824" y2="182.824"/><text x="48.5" y="177.561" fill="#000" font-family="sans-serif" font-size="13" lengthAdjust="spacing" textLength="101">allocate balances</text><polygon fill="#181818" points="766.5 210.115 776.5 214.115 766.5 218.115 770.5 214.115" style="stroke:#181818;stroke-width:1"/><line style="stroke:#181818;stroke-width:1" x1="84.5" x2="772.5" y1="214.115" y2="214.115"/><text x="91.5" y="208.852" fill="#000" font-family="sans-serif" font-size="13" lengthAdjust="spacing" textLength="101">allocate balances</text><polygon fill="#181818" points="260.5 241.406 270.5 245.406 260.5 249.406 264.5 245.406" style="stroke:#181818;stroke-width:1"/><line style="stroke:#181818;stroke-width:1" x1="41.5" x2="266.5" y1="245.406" y2="245.406"/><text x="48.5" y="240.144" fill="#000" font-family="sans-serif" font-size="13" lengthAdjust="spacing" textLength="212">tx &apos;deploy&apos; a SDC with token address</text><polygon fill="#181818" points="766.5 272.697 776.5 276.697 766.5 280.697 770.5 276.697" style="stroke:#181818;stroke-width:1"/><line style="stroke:#181818;stroke-width:1" x1="41.5" x2="772.5" y1="276.697" y2="276.697"/><text x="48.5" y="271.435" fill="#000" font-family="sans-serif" font-size="13" lengthAdjust="spacing" textLength="197">tx set &apos;allowance&apos; for SDC address</text><polygon fill="#181818" points="766.5 303.988 776.5 307.988 766.5 311.988 770.5 307.988" style="stroke:#181818;stroke-width:1"/><line style="stroke:#181818;stroke-width:1" x1="84.5" x2="772.5" y1="307.988" y2="307.988"/><text x="91.5" y="302.726" fill="#000" font-family="sans-serif" font-size="13" lengthAdjust="spacing" textLength="197">tx set &apos;allowance&apos; for SDC address</text><polygon fill="#181818" points="260.5 335.279 270.5 339.279 260.5 343.279 264.5 339.279" style="stroke:#181818;stroke-width:1"/><line style="stroke:#181818;stroke-width:1" x1="41.5" x2="266.5" y1="339.279" y2="339.279"/><text x="48.5" y="334.017" fill="#000" font-family="sans-serif" font-size="13" lengthAdjust="spacing" textLength="86">tx &apos;inceptTrade&apos;</text><polygon fill="#181818" points="886.5 366.57 896.5 370.57 886.5 374.57 890.5 370.57" style="stroke:#181818;stroke-width:1"/><line style="stroke:#181818;stroke-width:1;stroke-dasharray:2,2" x1="282.5" x2="892.5" y1="370.57" y2="370.57"/><text x="289.5" y="365.308" fill="#000" font-family="sans-serif" font-size="13" lengthAdjust="spacing" textLength="110">emit TradeIncepted</text><polygon fill="#181818" points="1080.5 397.861 1090.5 401.861 1080.5 405.861 1084.5 401.861" style="stroke:#181818;stroke-width:1"/><line style="stroke:#181818;stroke-width:1" x1="908.5" x2="1086.5" y1="401.861" y2="401.861"/><text x="915.5" y="396.599" fill="#000" font-family="sans-serif" font-size="13" lengthAdjust="spacing" textLength="160">request initial valuation data</text><polygon fill="#181818" points="919.5 429.152 909.5 433.152 919.5 437.152 915.5 433.152" style="stroke:#181818;stroke-width:1"/><line style="stroke:#181818;stroke-width:1" x1="913.5" x2="1091.5" y1="433.152" y2="433.152"/><text x="925.5" y="427.89" fill="#000" font-family="sans-serif" font-size="13" lengthAdjust="spacing" textLength="150">return initial valuation data</text><polygon fill="#181818" points="293.5 460.443 283.5 464.443 293.5 468.443 289.5 464.443" style="stroke:#181818;stroke-width:1"/><line style="stroke:#181818;stroke-width:1" x1="287.5" x2="897.5" y1="464.443" y2="464.443"/><text x="299.5" y="459.181" fill="#000" font-family="sans-serif" font-size="13" lengthAdjust="spacing" textLength="290">tx &apos;performSettlement&apos; to store initial valuation data</text><rect width="1177.5" height="3" x="0" fill="#EEE" style="stroke:#eee;stroke-width:1" y="494.089"/><line style="stroke:#000;stroke-width:1" x1="0" x2="1177.5" y1="494.089" y2="494.089"/><line style="stroke:#000;stroke-width:1" x1="0" x2="1177.5" y1="497.089" y2="497.089"/><rect width="153" height="25.291" x="512.25" fill="#EEE" style="stroke:#000;stroke-width:2" y="482.443"/><text x="518.25" y="500.472" fill="#000" font-family="sans-serif" font-size="13" font-weight="bold" lengthAdjust="spacing" textLength="135">TradeState &apos;Incepted&apos;</text><polygon fill="#181818" points="260.5 537.025 270.5 541.025 260.5 545.025 264.5 541.025" style="stroke:#181818;stroke-width:1"/><line style="stroke:#181818;stroke-width:1" x1="84.5" x2="266.5" y1="541.025" y2="541.025"/><text x="91.5" y="535.763" fill="#000" font-family="sans-serif" font-size="13" lengthAdjust="spacing" textLength="93">tx &apos;confirmTrade&apos;</text><line style="stroke:#181818;stroke-width:1" x1="282.5" x2="324.5" y1="572.316" y2="572.316"/><line style="stroke:#181818;stroke-width:1" x1="324.5" x2="324.5" y1="572.316" y2="585.316"/><line style="stroke:#181818;stroke-width:1" x1="283.5" x2="324.5" y1="585.316" y2="585.316"/><polygon fill="#181818" points="293.5 581.316 283.5 585.316 293.5 589.316 289.5 585.316" style="stroke:#181818;stroke-width:1"/><text x="289.5" y="567.054" fill="#000" font-family="sans-serif" font-size="13" lengthAdjust="spacing" textLength="101">validate tradedata</text><polygon fill="#181818" points="886.5 612.607 896.5 616.607 886.5 620.607 890.5 616.607" style="stroke:#181818;stroke-width:1"/><line style="stroke:#181818;stroke-width:1;stroke-dasharray:2,2" x1="282.5" x2="892.5" y1="616.607" y2="616.607"/><text x="289.5" y="611.345" fill="#000" font-family="sans-serif" font-size="13" lengthAdjust="spacing" textLength="119">emit TradeConfirmed</text><rect width="1177.5" height="3" x="0" fill="#EEE" style="stroke:#eee;stroke-width:1" y="646.253"/><line style="stroke:#000;stroke-width:1" x1="0" x2="1177.5" y1="646.253" y2="646.253"/><line style="stroke:#000;stroke-width:1" x1="0" x2="1177.5" y1="649.253" y2="649.253"/><rect width="164" height="25.291" x="506.75" fill="#EEE" style="stroke:#000;stroke-width:2" y="634.607"/><text x="512.75" y="652.636" fill="#000" font-family="sans-serif" font-size="13" font-weight="bold" lengthAdjust="spacing" textLength="146">TradeState &apos;Confirmed&apos;</text><polygon fill="#181818" points="766.5 706.481 776.5 710.481 766.5 714.481 770.5 710.481" style="stroke:#181818;stroke-width:1"/><line style="stroke:#181818;stroke-width:1" x1="282.5" x2="772.5" y1="710.481" y2="710.481"/><text x="289.5" y="687.927" fill="#000" font-family="sans-serif" font-size="13" lengthAdjust="spacing" textLength="298">tx &apos;transferFrom&apos; margin buffers and termination fees</text><text x="289.5" y="705.218" fill="#000" font-family="sans-serif" font-size="13" lengthAdjust="spacing" textLength="193">to SDC address for CP1 and CP2</text><polygon fill="#181818" points="766.5 737.771 776.5 741.771 766.5 745.771 770.5 741.771" style="stroke:#181818;stroke-width:1"/><line style="stroke:#181818;stroke-width:1" x1="282.5" x2="772.5" y1="741.771" y2="741.771"/><text x="289.5" y="736.509" fill="#000" font-family="sans-serif" font-size="13" lengthAdjust="spacing" textLength="394">tx &apos;transferFrom&apos; optional Upfront Fee from Paying to Receiving Party</text><rect width="1177.5" height="3" x="0" fill="#EEE" style="stroke:#eee;stroke-width:1" y="771.417"/><line style="stroke:#000;stroke-width:1" x1="0" x2="1177.5" y1="771.417" y2="771.417"/><line style="stroke:#000;stroke-width:1" x1="0" x2="1177.5" y1="774.417" y2="774.417"/><rect width="162" height="25.291" x="507.75" fill="#EEE" style="stroke:#000;stroke-width:2" y="759.771"/><text x="513.75" y="777.8" fill="#000" font-family="sans-serif" font-size="13" font-weight="bold" lengthAdjust="spacing" textLength="144">TradeState &apos;inTransfer&apos;</text><polygon fill="#181818" points="293.5 814.354 283.5 818.354 293.5 822.354 289.5 818.354" style="stroke:#181818;stroke-width:1"/><line style="stroke:#181818;stroke-width:1" x1="287.5" x2="777.5" y1="818.354" y2="818.354"/><text x="299.5" y="813.091" fill="#000" font-family="sans-serif" font-size="13" lengthAdjust="spacing" textLength="159">callback tx &apos;afterSettlement&apos;</text><rect width="1177.5" height="3" x="0" fill="#EEE" style="stroke:#eee;stroke-width:1" y="847.999"/><line style="stroke:#000;stroke-width:1" x1="0" x2="1177.5" y1="847.999" y2="847.999"/><line style="stroke:#000;stroke-width:1" x1="0" x2="1177.5" y1="850.999" y2="850.999"/><rect width="155" height="25.291" x="511.25" fill="#EEE" style="stroke:#000;stroke-width:2" y="836.354"/><text x="517.25" y="854.382" fill="#000" font-family="sans-serif" font-size="13" font-weight="bold" lengthAdjust="spacing" textLength="137">ProcessState &apos;Settled&apos;</text><path fill="#EEE" d="M10,885.6445 L83,885.6445 L83,894.9355 L73,904.9355 L10,904.9355 L10,885.6445" style="stroke:#000;stroke-width:1.5"/><rect width="1157.5" height="655.5" x="10" fill="none" style="stroke:#000;stroke-width:1.5" y="885.644"/><text x="25" y="900.673" fill="#000" font-family="sans-serif" font-size="13" font-weight="bold" lengthAdjust="spacing" textLength="28">loop</text><text x="98" y="899.515" fill="#000" font-family="sans-serif" font-size="11" font-weight="bold" lengthAdjust="spacing" textLength="102">[Every Settlement]</text><polygon fill="#181818" points="260.5 924.227 270.5 928.227 260.5 932.227 264.5 928.227" style="stroke:#181818;stroke-width:1"/><line style="stroke:#181818;stroke-width:1" x1="41.5" x2="266.5" y1="928.227" y2="928.227"/><text x="48.5" y="922.964" fill="#000" font-family="sans-serif" font-size="13" lengthAdjust="spacing" textLength="124">tx: &apos;initiateSettlement&apos;</text><rect width="1177.5" height="3" x="0" fill="#EEE" style="stroke:#eee;stroke-width:1" y="957.872"/><line style="stroke:#000;stroke-width:1" x1="0" x2="1177.5" y1="957.872" y2="957.872"/><line style="stroke:#000;stroke-width:1" x1="0" x2="1177.5" y1="960.872" y2="960.872"/><rect width="159" height="25.291" x="509.25" fill="#EEE" style="stroke:#000;stroke-width:2" y="946.227"/><text x="515.25" y="964.255" fill="#000" font-family="sans-serif" font-size="13" font-weight="bold" lengthAdjust="spacing" textLength="141">TradeState &apos;Valuation&apos;</text><polygon fill="#181818" points="886.5 1000.809 896.5 1004.809 886.5 1008.809 890.5 1004.809" style="stroke:#181818;stroke-width:1"/><line style="stroke:#181818;stroke-width:1;stroke-dasharray:2,2" x1="282.5" x2="892.5" y1="1004.809" y2="1004.809"/><text x="289.5" y="999.546" fill="#000" font-family="sans-serif" font-size="13" lengthAdjust="spacing" textLength="188">emit ProcessSettlementRequest</text><polygon fill="#181818" points="1080.5 1032.1 1090.5 1036.1 1080.5 1040.1 1084.5 1036.1" style="stroke:#181818;stroke-width:1"/><line style="stroke:#181818;stroke-width:1" x1="908.5" x2="1086.5" y1="1036.1" y2="1036.1"/><text x="915.5" y="1030.837" fill="#000" font-family="sans-serif" font-size="13" lengthAdjust="spacing" textLength="126">request valuation data</text><polygon fill="#181818" points="919.5 1063.391 909.5 1067.391 919.5 1071.391 915.5 1067.391" style="stroke:#181818;stroke-width:1"/><line style="stroke:#181818;stroke-width:1" x1="913.5" x2="1091.5" y1="1067.391" y2="1067.391"/><text x="925.5" y="1062.128" fill="#000" font-family="sans-serif" font-size="13" lengthAdjust="spacing" textLength="116">return valuation data</text><polygon fill="#181818" points="293.5 1094.682 283.5 1098.682 293.5 1102.682 289.5 1098.682" style="stroke:#181818;stroke-width:1"/><line style="stroke:#181818;stroke-width:1" x1="287.5" x2="897.5" y1="1098.682" y2="1098.682"/><text x="299.5" y="1093.419" fill="#000" font-family="sans-serif" font-size="13" lengthAdjust="spacing" textLength="181">callback: tx &apos;performSettlement&apos;</text><line style="stroke:#181818;stroke-width:1" x1="282.5" x2="324.5" y1="1129.973" y2="1129.973"/><line style="stroke:#181818;stroke-width:1" x1="324.5" x2="324.5" y1="1129.973" y2="1142.973"/><line style="stroke:#181818;stroke-width:1" x1="283.5" x2="324.5" y1="1142.973" y2="1142.973"/><polygon fill="#181818" points="293.5 1138.973 283.5 1142.973 293.5 1146.973 289.5 1142.973" style="stroke:#181818;stroke-width:1"/><text x="289.5" y="1124.71" fill="#000" font-family="sans-serif" font-size="13" lengthAdjust="spacing" textLength="274">Caps Settlement Amount at Margin Buffer Level</text><polygon fill="#181818" points="766.5 1170.264 776.5 1174.264 766.5 1178.264 770.5 1174.264" style="stroke:#181818;stroke-width:1"/><line style="stroke:#181818;stroke-width:1" x1="282.5" x2="772.5" y1="1174.264" y2="1174.264"/><text x="289.5" y="1169.001" fill="#000" font-family="sans-serif" font-size="13" lengthAdjust="spacing" textLength="472">tx &apos;transferFrom&apos; settlement amount from Paying Party to Receiving Party Balance</text><rect width="1177.5" height="3" x="0" fill="#EEE" style="stroke:#eee;stroke-width:1" y="1203.909"/><line style="stroke:#000;stroke-width:1" x1="0" x2="1177.5" y1="1203.909" y2="1203.909"/><line style="stroke:#000;stroke-width:1" x1="0" x2="1177.5" y1="1206.909" y2="1206.909"/><rect width="162" height="25.291" x="507.75" fill="#EEE" style="stroke:#000;stroke-width:2" y="1192.264"/><text x="513.75" y="1210.292" fill="#000" font-family="sans-serif" font-size="13" font-weight="bold" lengthAdjust="spacing" textLength="144">TradeState &apos;inTransfer&apos;</text><polygon fill="#181818" points="886.5 1246.846 896.5 1250.846 886.5 1254.846 890.5 1250.846" style="stroke:#181818;stroke-width:1"/><line style="stroke:#181818;stroke-width:1;stroke-dasharray:2,2" x1="282.5" x2="892.5" y1="1250.846" y2="1250.846"/><text x="289.5" y="1245.583" fill="#000" font-family="sans-serif" font-size="13" lengthAdjust="spacing" textLength="124">emit AwaitingTransfer</text><path fill="#EEE" d="M246,1265.8457 L307,1265.8457 L307,1275.1367 L297,1285.1367 L246,1285.1367 L246,1265.8457" style="stroke:#000;stroke-width:1.5"/><rect width="608" height="268.299" x="246" fill="none" style="stroke:#000;stroke-width:1.5" y="1265.846"/><text x="261" y="1280.874" fill="#000" font-family="sans-serif" font-size="13" font-weight="bold" lengthAdjust="spacing" textLength="16">alt</text><text x="322" y="1279.716" fill="#000" font-family="sans-serif" font-size="11" font-weight="bold" lengthAdjust="spacing" textLength="94">[Transfer Check]</text><polygon fill="#181818" points="293.5 1304.428 283.5 1308.428 293.5 1312.428 289.5 1308.428" style="stroke:#181818;stroke-width:1"/><line style="stroke:#181818;stroke-width:1" x1="287.5" x2="777.5" y1="1308.428" y2="1308.428"/><text x="299.5" y="1303.165" fill="#000" font-family="sans-serif" font-size="13" lengthAdjust="spacing" textLength="159">callback tx &apos;afterSettlement&apos;</text><line style="stroke:#000;stroke-width:1;stroke-dasharray:2,2" x1="246" x2="854" y1="1317.428" y2="1317.428"/><text x="251" y="1329.298" fill="#000" font-family="sans-serif" font-size="11" font-weight="bold" lengthAdjust="spacing" textLength="55">[success]</text><rect width="1177.5" height="3" x="0" fill="#EEE" style="stroke:#eee;stroke-width:1" y="1354.704"/><line style="stroke:#000;stroke-width:1" x1="0" x2="1177.5" y1="1354.704" y2="1354.704"/><line style="stroke:#000;stroke-width:1" x1="0" x2="1177.5" y1="1357.704" y2="1357.704"/><rect width="143" height="25.291" x="517.25" fill="#EEE" style="stroke:#000;stroke-width:2" y="1343.059"/><text x="523.25" y="1361.087" fill="#000" font-family="sans-serif" font-size="13" font-weight="bold" lengthAdjust="spacing" textLength="125">TradeState &apos;Settled&apos;</text><line style="stroke:#000;stroke-width:1;stroke-dasharray:2,2" x1="246" x2="854" y1="1379.35" y2="1379.35"/><text x="251" y="1391.22" fill="#000" font-family="sans-serif" font-size="11" font-weight="bold" lengthAdjust="spacing" textLength="24">[fail]</text><polygon fill="#181818" points="766.5 1414.272 776.5 1418.272 766.5 1422.272 770.5 1418.272" style="stroke:#181818;stroke-width:1"/><line style="stroke:#181818;stroke-width:1" x1="282.5" x2="772.5" y1="1418.272" y2="1418.272"/><text x="289.5" y="1413.009" fill="#000" font-family="sans-serif" font-size="13" lengthAdjust="spacing" textLength="398">tx &apos;transfer&apos; Settlement Amount from SDC Balance to Receiving Party</text><polygon fill="#181818" points="766.5 1445.563 776.5 1449.563 766.5 1453.563 770.5 1449.563" style="stroke:#181818;stroke-width:1"/><line style="stroke:#181818;stroke-width:1" x1="282.5" x2="772.5" y1="1449.563" y2="1449.563"/><text x="289.5" y="1444.3" fill="#000" font-family="sans-serif" font-size="13" lengthAdjust="spacing" textLength="379">tx &apos;transfer&apos; Termination Fee from SDC Balance to Receiving Party</text><polygon fill="#181818" points="766.5 1476.853 776.5 1480.853 766.5 1484.853 770.5 1480.853" style="stroke:#181818;stroke-width:1"/><line style="stroke:#181818;stroke-width:1" x1="282.5" x2="772.5" y1="1480.853" y2="1480.853"/><text x="289.5" y="1475.591" fill="#000" font-family="sans-serif" font-size="13" lengthAdjust="spacing" textLength="258">tx &apos;approve&apos; - Unlock remaing Party Balances</text><rect width="1177.5" height="3" x="0" fill="#EEE" style="stroke:#eee;stroke-width:1" y="1510.499"/><line style="stroke:#000;stroke-width:1" x1="0" x2="1177.5" y1="1510.499" y2="1510.499"/><line style="stroke:#000;stroke-width:1" x1="0" x2="1177.5" y1="1513.499" y2="1513.499"/><rect width="171" height="25.291" x="503.25" fill="#EEE" style="stroke:#000;stroke-width:2" y="1498.853"/><text x="509.25" y="1516.882" fill="#000" font-family="sans-serif" font-size="13" font-weight="bold" lengthAdjust="spacing" textLength="153">TradeState &apos;Terminated&apos;</text></g></svg>